<svg width="249" height="80" viewBox="0 0 249 80" fill="none" xmlns="http://www.w3.org/2000/svg">
<path d="M0 72.75H47.25V79.5H0V72.75ZM40.5 12V22.125H33.75V12H27V22.125H20.25V12H13.5V22.125H6.75V12H0V32.25H6.75V66H40.5V32.25H47.25V12H40.5Z" fill="black"/>
<path d="M55.18 63V17.5H71.495C77.215 17.5 81.7 18.8433 84.95 21.53C88.2 24.2167 89.825 27.9867 89.825 32.84C89.825 36.0033 89.0883 38.7333 87.615 41.03C86.1417 43.2833 84.04 45.0383 81.31 46.295C78.58 47.5083 75.3083 48.115 71.495 48.115H57L58.495 46.555V63H55.18ZM86.77 63L74.94 46.49H78.71L90.54 63H86.77ZM58.495 46.75L57 45.19H71.495C76.3917 45.19 80.0967 44.1067 82.61 41.94C85.1667 39.7733 86.445 36.74 86.445 32.84C86.445 28.8967 85.1667 25.8633 82.61 23.74C80.0967 21.5733 76.3917 20.49 71.495 20.49H57L58.495 18.865V46.75ZM121.267 63.325C117.887 63.325 114.746 62.7617 111.842 61.635C108.982 60.465 106.469 58.84 104.302 56.76C102.179 54.6367 100.532 52.1883 99.3622 49.415C98.1922 46.5983 97.6072 43.5433 97.6072 40.25C97.6072 36.9567 98.1922 33.9233 99.3622 31.15C100.532 28.3333 102.179 25.885 104.302 23.805C106.469 21.6817 108.982 20.0567 111.842 18.93C114.746 17.76 117.887 17.175 121.267 17.175C124.647 17.175 127.767 17.76 130.627 18.93C133.531 20.0567 136.044 21.66 138.167 23.74C140.291 25.82 141.937 28.2683 143.107 31.085C144.321 33.8583 144.927 36.9133 144.927 40.25C144.927 43.5867 144.321 46.6633 143.107 49.48C141.937 52.2533 140.291 54.68 138.167 56.76C136.044 58.84 133.531 60.465 130.627 61.635C127.767 62.7617 124.647 63.325 121.267 63.325ZM121.267 60.27C124.171 60.27 126.857 59.7717 129.327 58.775C131.797 57.7783 133.942 56.37 135.762 54.55C137.582 52.73 138.991 50.6067 139.987 48.18C141.027 45.7533 141.547 43.11 141.547 40.25C141.547 37.3467 141.027 34.7033 139.987 32.32C138.991 29.8933 137.582 27.77 135.762 25.95C133.942 24.13 131.797 22.7217 129.327 21.725C126.857 20.7283 124.171 20.23 121.267 20.23C118.364 20.23 115.677 20.7283 113.207 21.725C110.737 22.7217 108.571 24.13 106.707 25.95C104.887 27.77 103.457 29.8933 102.417 32.32C101.421 34.7033 100.922 37.3467 100.922 40.25C100.922 43.11 101.421 45.7533 102.417 48.18C103.457 50.6067 104.887 52.73 106.707 54.55C108.571 56.37 110.737 57.7783 113.207 58.775C115.677 59.7717 118.364 60.27 121.267 60.27ZM175.73 63.325C172.35 63.325 169.208 62.7617 166.305 61.635C163.445 60.465 160.932 58.84 158.765 56.76C156.642 54.6367 154.995 52.1883 153.825 49.415C152.655 46.5983 152.07 43.5433 152.07 40.25C152.07 36.9567 152.655 33.9233 153.825 31.15C154.995 28.3333 156.642 25.885 158.765 23.805C160.932 21.6817 163.445 20.0567 166.305 18.93C169.208 17.76 172.35 17.175 175.73 17.175C179.11 17.175 182.23 17.76 185.09 18.93C187.993 20.0567 190.507 21.66 192.63 23.74C194.753 25.82 196.4 28.2683 197.57 31.085C198.783 33.8583 199.39 36.9133 199.39 40.25C199.39 43.5867 198.783 46.6633 197.57 49.48C196.4 52.2533 194.753 54.68 192.63 56.76C190.507 58.84 187.993 60.465 185.09 61.635C182.23 62.7617 179.11 63.325 175.73 63.325ZM175.73 60.27C178.633 60.27 181.32 59.7717 183.79 58.775C186.26 57.7783 188.405 56.37 190.225 54.55C192.045 52.73 193.453 50.6067 194.45 48.18C195.49 45.7533 196.01 43.11 196.01 40.25C196.01 37.3467 195.49 34.7033 194.45 32.32C193.453 29.8933 192.045 27.77 190.225 25.95C188.405 24.13 186.26 22.7217 183.79 21.725C181.32 20.7283 178.633 20.23 175.73 20.23C172.827 20.23 170.14 20.7283 167.67 21.725C165.2 22.7217 163.033 24.13 161.17 25.95C159.35 27.77 157.92 29.8933 156.88 32.32C155.883 34.7033 155.385 37.3467 155.385 40.25C155.385 43.11 155.883 45.7533 156.88 48.18C157.92 50.6067 159.35 52.73 161.17 54.55C163.033 56.37 165.2 57.7783 167.67 58.775C170.14 59.7717 172.827 60.27 175.73 60.27ZM213.748 51.495L213.618 47.335L242.608 17.5H246.638L226.358 38.495L224.473 40.51L213.748 51.495ZM210.888 63V17.5H214.203V63H210.888ZM243.973 63L223.498 39.6L225.773 37.195L248.003 63H243.973Z" fill="black"/>
</svg>
